<svg width="102" height="25" viewBox="0 0 102 25" fill="none" xmlns="http://www.w3.org/2000/svg">
<g clip-path="url(#clip0_0_1320)">
<path fill-rule="evenodd" clip-rule="evenodd" d="M2.46876 23.1359L4.57331 21.9292L5.41828 21.4444L6.24784 20.9661L7.54944 20.2202L9.61662 19.0399L11.6859 20.2202L12.9854 20.9661L13.8148 21.4444L14.6621 21.9292L16.7226 23.1183L17.3491 23.4737L17.9602 23.8226L19.2001 24.5334V13.1119L16.7226 11.6881V20.2904L15.0459 19.3251L12.575 17.9122L11.6329 17.3637L10.8565 16.9249V2.74127H8.3789V17.2628L6.65816 18.2522L4.1895 19.6761L2.46876 20.6568V11.7056L0 13.1207V24.551L1.23104 23.8401L1.84882 23.4913L2.46876 23.1359ZM15.0437 17.3549V0.178772H12.5728V15.9421L15.0437 17.3549ZM6.66042 16.2711V5.30158H4.19166V17.695L6.66042 16.2711Z" fill="#BBC3CF"/>
</g>
<path d="M29.6675 17.7692H31.8254L33.8146 10.9221H33.8965L35.8908 17.7692H38.0487L41.0453 7.2965H38.6266L36.8931 14.5885H36.801L34.8936 7.2965H32.8226L30.9101 14.5732H30.8232L29.0896 7.2965H26.6709L29.6675 17.7692Z" fill="#BBC3CF"/>
<path d="M42.2304 17.7692H49.3077V15.9437H44.4446V13.4431H48.9242V11.6175H44.4446V9.12207H49.2872V7.2965H42.2304V17.7692Z" fill="#BBC3CF"/>
<path d="M51.0476 17.7692H57.7516V15.9437H53.2618V7.2965H51.0476V17.7692Z" fill="#BBC3CF"/>
<path d="M57.2683 7.2965L61.0882 14.067V17.7692H63.2871V14.067L67.107 7.2965H64.6269L62.2388 11.8067H62.1365L59.7485 7.2965H57.2683Z" fill="#BBC3CF"/>
<path d="M68.5784 9.12207H71.7847V17.7692H73.9733V9.12207H77.1796V7.2965H68.5784V9.12207Z" fill="#BBC3CF"/>
<path d="M80.8102 7.2965H78.596V17.7692H80.8102V7.2965Z" fill="#BBC3CF"/>
<path d="M91.8723 10.963C91.5808 8.54423 89.7502 7.15332 87.3263 7.15332C84.5598 7.15332 82.4479 9.10673 82.4479 12.5329C82.4479 15.9488 84.524 17.9124 87.3263 17.9124C90.011 17.9124 91.632 16.1278 91.8723 14.1999L89.6325 14.1897C89.4229 15.3096 88.5433 15.9539 87.3621 15.9539C85.7717 15.9539 84.6928 14.7726 84.6928 12.5329C84.6928 10.3545 85.7564 9.11184 87.3774 9.11184C88.5894 9.11184 89.4638 9.81241 89.6325 10.963H91.8723Z" fill="#BBC3CF"/>
<path d="M99.1413 10.3084H101.264C101.233 8.44196 99.6987 7.15332 97.3669 7.15332C95.0709 7.15332 93.3885 8.4215 93.3987 10.3238C93.3936 11.8681 94.4828 12.7528 96.2521 13.1772L97.3925 13.4635C98.5328 13.7397 99.1669 14.067 99.172 14.7726C99.1669 15.5397 98.4408 16.0613 97.3158 16.0613C96.1652 16.0613 95.3368 15.5295 95.2652 14.4812H93.1226C93.1788 16.7465 94.7999 17.9175 97.3413 17.9175C99.8982 17.9175 101.402 16.6954 101.407 14.7778C101.402 13.034 100.087 12.1084 98.2669 11.6993L97.326 11.4743C96.4158 11.2647 95.6538 10.9272 95.6692 10.1755C95.6692 9.50048 96.2675 9.00446 97.3516 9.00446C98.4101 9.00446 99.0595 9.48514 99.1413 10.3084Z" fill="#BBC3CF"/>
<defs>
<clipPath id="clip0_0_1320">
<rect width="19.2" height="24" fill="white" transform="translate(0 0.66925)"/>
</clipPath>
</defs>
</svg>
